<?xml version="1.0" standalone="no"?>
<!DOCTYPE svg PUBLIC "-//W3C//DTD SVG 20010904//EN"
 "http://www.w3.org/TR/2001/REC-SVG-20010904/DTD/svg10.dtd">
<svg version="1.0" xmlns="http://www.w3.org/2000/svg"
 width="442.000000pt" height="442.000000pt" viewBox="0 0 442.000000 442.000000"
 preserveAspectRatio="xMidYMid meet">
<metadata>
Created by potrace 1.11, written by Peter Selinger 2001-2013
</metadata>
<g transform="translate(0.000000,442.000000) scale(0.100000,-0.100000)"
fill="#000000" stroke="none">
<path d="M2310 4345 c0 -13 78 -7 86 7 3 5 -13 8 -40 6 -25 -2 -46 -8 -46 -13z"/>
<path d="M2270 4330 c-6 -11 -19 -20 -29 -20 -10 0 -24 -6 -30 -14 -10 -12 -3
-13 40 -9 68 6 57 -12 -17 -27 -30 -6 -67 -18 -81 -25 -19 -10 -29 -11 -34 -4
-3 6 -9 2 -12 -10 -5 -22 -10 -23 -100 -23 -30 0 -50 -5 -53 -12 -3 -7 -21
-13 -41 -14 -43 -2 -140 -28 -168 -46 -11 -7 -42 -21 -70 -30 -51 -17 -99 -46
-76 -46 6 0 25 7 40 15 61 31 239 87 291 90 30 3 57 5 60 6 3 1 9 1 14 0 5 -1
25 4 45 12 20 8 53 17 74 21 31 6 37 5 31 -6 -6 -10 -4 -10 9 1 12 9 30 12 58
7 27 -4 38 -3 34 4 -3 5 -2 10 4 10 5 0 12 -6 14 -12 4 -10 8 -9 16 2 7 10 11
11 11 3 0 -7 11 -13 25 -13 14 0 25 5 25 11 0 6 26 10 70 8 39 -1 73 1 77 4 3
4 -3 7 -15 7 -13 0 -22 6 -22 15 0 8 5 15 11 15 5 0 7 5 4 10 -4 6 -10 8 -15
5 -5 -3 -11 -1 -15 5 -3 5 -35 10 -71 10 -68 0 -75 4 -46 27 15 13 14 14 -16
10 -29 -3 -33 -1 -29 15 7 24 0 23 -13 -2z m67 -126 c-3 -3 -12 -4 -19 -1 -8
3 -5 6 6 6 11 1 17 -2 13 -5z"/>
<path d="M2000 4270 c-20 -6 -21 -8 -5 -8 11 0 29 3 40 8 25 11 -1 11 -35 0z"/>
<path d="M1913 4253 c-13 -2 -23 -8 -23 -13 0 -5 13 -5 29 0 16 4 32 6 34 3 3
-2 8 0 12 6 6 11 -10 12 -52 4z"/>
<path d="M1957 4215 c-27 -7 -52 -17 -55 -21 -4 -4 1 -4 10 -1 9 3 33 9 52 13
20 3 39 10 42 15 3 5 4 9 2 8 -2 0 -25 -7 -51 -14z"/>
<path d="M2348 4175 c-1 -1 -30 -5 -63 -9 -147 -15 -176 -19 -180 -27 -14 -22
182 -18 303 7 38 8 50 20 19 21 -12 0 -34 3 -49 6 -14 3 -28 4 -30 2z"/>
<path d="M2070 4129 c0 -5 5 -7 10 -4 6 3 10 8 10 11 0 2 -4 4 -10 4 -5 0 -10
-5 -10 -11z"/>
<path d="M1976 4105 c7 -16 39 -20 48 -6 3 5 -4 11 -17 15 -33 9 -37 7 -31 -9z"/>
<path d="M2096 4111 c-3 -4 6 -6 19 -3 14 2 25 6 25 8 0 8 -39 4 -44 -5z"/>
<path d="M2146 4099 c-50 -5 -113 -15 -140 -23 -140 -38 -202 -58 -211 -68 -7
-7 -4 -8 10 -5 11 4 49 13 85 21 36 8 79 20 95 26 37 15 196 40 252 40 23 0
45 5 48 10 7 11 -10 11 -139 -1z"/>
<path d="M2128 4050 c-25 -5 -55 -13 -65 -20 -12 -8 -13 -10 -2 -7 8 3 47 8
85 12 84 9 129 24 69 23 -22 0 -61 -4 -87 -8z"/>
<path d="M2080 4000 c-101 -15 -125 -20 -158 -31 -18 -6 -29 -15 -26 -20 3 -6
-13 -17 -35 -26 -44 -17 -56 -34 -18 -26 12 2 -18 -12 -68 -32 -49 -20 -99
-41 -110 -45 -11 -5 -47 -20 -80 -33 -33 -14 -89 -37 -125 -52 -36 -14 -85
-38 -110 -53 -25 -14 -50 -25 -56 -24 -6 1 -31 -15 -55 -35 -24 -21 -60 -48
-79 -61 l-35 -23 26 23 c14 13 43 37 64 53 22 17 51 41 65 53 l25 24 -35 -23
c-29 -19 -141 -112 -188 -156 -7 -7 -19 -13 -25 -13 -7 0 -17 -9 -22 -19 -6
-11 -38 -53 -72 -94 -34 -42 -68 -85 -75 -96 -7 -12 -19 -21 -26 -21 -7 0 -18
-13 -23 -30 -6 -16 -15 -28 -19 -25 -7 5 -24 -19 -108 -150 -17 -27 -32 -45
-32 -39 0 5 5 15 11 21 6 6 9 17 7 25 -4 10 -41 -48 -66 -104 -9 -21 16 -5 28
17 7 14 15 23 17 21 2 -2 -12 -32 -31 -67 -36 -64 -44 -72 -26 -25 5 14 7 26
5 26 -7 0 -57 -98 -72 -140 l-12 -35 5 37 c3 21 13 56 23 78 10 23 16 52 13
68 -5 26 -6 25 -23 -16 -10 -23 -21 -42 -24 -42 -9 0 25 77 77 173 81 148 78
144 78 125 0 -10 5 -18 10 -18 6 0 10 6 10 13 0 8 11 24 25 37 14 13 25 31 25
39 -1 11 -5 9 -13 -7 -7 -12 -16 -20 -19 -17 -3 4 -9 -3 -13 -14 -3 -12 -11
-21 -17 -21 -5 0 -8 7 -4 15 12 31 -4 12 -46 -57 -88 -144 -144 -271 -208
-470 -23 -71 -42 -128 -44 -128 -2 0 -1 24 2 53 5 58 41 175 109 350 45 115
49 154 13 110 -9 -12 -20 -19 -24 -16 -3 3 -11 -8 -17 -26 -6 -18 -13 -30 -15
-28 -3 2 0 17 7 33 12 33 21 84 13 84 -5 0 -25 -46 -29 -66 -3 -10 -35 -64
-39 -64 -1 0 -3 14 -4 30 -1 17 7 50 18 75 11 24 25 68 31 97 6 29 17 63 25
76 8 12 11 22 6 22 -5 0 -25 -36 -46 -80 -20 -44 -39 -80 -42 -80 -2 0 -1 19
2 43 6 38 5 40 -8 22 -8 -11 -22 -40 -32 -65 -10 -25 -24 -58 -31 -75 -17 -37
-95 -250 -95 -259 0 -4 4 -5 9 -2 5 4 7 -3 4 -15 -4 -15 -8 -17 -14 -8 -7 13
-39 -77 -39 -113 0 -10 -9 -41 -20 -70 -33 -88 -51 -228 -51 -418 -1 -96 1
-206 4 -245 5 -59 5 -64 -4 -30 -5 22 -12 65 -15 95 -2 30 -9 99 -15 153 -8
75 -7 102 2 113 9 11 9 20 1 37 -6 12 -13 33 -15 47 -3 15 -5 7 -6 -18 0 -27
3 -41 9 -37 6 3 10 -1 10 -10 0 -9 -5 -13 -10 -10 -16 10 -12 -343 5 -460 38
-268 161 -542 366 -821 46 -63 183 -202 304 -309 104 -93 141 -129 175 -171
14 -16 42 -40 63 -53 21 -13 43 -28 50 -34 6 -7 66 -48 132 -92 152 -101 212
-125 314 -125 80 0 150 12 160 27 7 11 54 12 61 2 3 -5 24 -2 45 6 22 8 45 14
52 15 23 0 123 83 129 105 3 13 16 32 29 43 51 45 78 140 63 225 -6 34 -13 56
-16 49 -2 -8 -17 9 -35 40 -16 29 -46 73 -66 97 -47 58 -148 131 -181 131 -14
0 -35 7 -46 15 -25 19 -40 19 -24 0 18 -22 7 -19 -51 15 -49 29 -76 33 -51 8
23 -23 12 -27 -29 -13 -22 8 -51 14 -63 13 -12 -1 -36 8 -53 20 -17 12 -39 22
-48 22 -9 0 -30 9 -47 21 -53 38 -40 4 16 -39 16 -12 25 -22 20 -22 -12 0
-148 82 -152 92 -2 4 -14 8 -27 8 -13 0 -27 5 -30 10 -4 6 -12 7 -22 1 -13 -7
-20 -2 -32 22 -9 17 -22 33 -30 35 -9 3 -11 0 -6 -9 4 -8 -14 7 -42 34 -30 29
-66 80 -94 133 -44 86 -67 117 -54 73 l7 -24 -20 20 c-23 23 -43 83 -23 71 9
-6 10 0 5 21 -5 22 4 13 42 -37 57 -75 93 -114 101 -106 3 3 -9 22 -26 43 -70
83 -85 110 -69 116 10 3 9 8 -3 23 -9 10 -14 25 -12 32 3 7 17 -5 34 -30 111
-160 151 -200 219 -218 25 -7 64 -23 88 -36 46 -26 79 -32 50 -10 -10 7 -18
17 -18 22 0 5 -18 19 -40 32 -22 13 -38 27 -35 31 2 5 -3 8 -12 7 -9 0 -22 9
-29 22 -6 13 -15 24 -20 25 -5 1 -8 5 -7 9 2 4 -3 5 -11 2 -9 -3 -32 18 -62
58 l-49 62 38 -23 c20 -12 37 -18 37 -13 0 5 36 -27 79 -72 44 -44 82 -78 86
-75 3 4 -9 20 -27 37 -32 32 -33 56 -1 31 15 -11 -6 16 -55 69 -7 8 -16 11
-20 7 -4 -4 6 -17 23 -30 16 -13 27 -27 24 -30 -12 -11 -34 6 -58 43 -14 20
-36 48 -50 61 -14 13 -20 20 -13 17 24 -13 12 10 -28 54 -81 90 -150 235 -170
357 -6 37 -16 84 -21 104 -5 20 -9 52 -8 70 l1 34 10 -30 c15 -44 29 -123 32
-180 2 -44 45 -161 46 -127 0 7 -6 25 -14 40 -7 15 -16 41 -19 57 -6 29 -6 29
10 -5 14 -31 16 -33 23 -15 8 22 6 32 -21 91 -20 43 -35 213 -31 354 1 51 -1
70 -8 60 -8 -13 -10 -12 -10 3 0 21 -9 22 -24 2 -7 -10 -16 -12 -26 -5 -8 5
-11 12 -7 17 5 4 12 2 16 -6 11 -18 25 15 22 52 -4 41 19 168 29 162 10 -6 30
49 30 84 1 29 24 77 36 73 4 -1 9 3 10 10 12 56 24 91 34 103 11 13 14 13 25
-2 11 -14 14 -11 30 25 11 23 22 42 27 42 4 0 8 6 8 13 0 6 15 34 34 62 19 27
31 56 28 64 -3 9 -1 12 6 7 8 -5 12 0 12 13 0 11 5 23 10 26 6 3 10 1 10 -5 0
-6 5 -8 11 -5 6 4 8 14 5 22 -9 22 3 36 20 22 11 -9 14 -7 14 10 0 34 29 71
56 71 18 0 25 7 30 28 4 15 22 42 41 60 19 18 36 41 38 51 3 18 1 18 -28 3
-18 -8 -43 -24 -57 -36 -13 -12 -6 0 15 25 43 49 74 113 52 106 -7 -2 -16 -13
-22 -25 -11 -24 -28 -31 -19 -7 13 33 -14 10 -133 -111 -69 -69 -120 -117
-114 -107 5 10 44 54 86 98 42 44 104 111 138 149 70 77 109 106 217 162 41
21 77 40 80 43 10 11 176 89 220 104 25 8 54 18 64 23 13 5 17 4 12 -4 -4 -6
-24 -17 -45 -23 -32 -9 -37 -15 -37 -39 0 -31 7 -32 68 -6 21 9 43 16 50 15
18 -1 -83 -49 -104 -49 -29 0 -96 -30 -102 -46 -3 -8 -12 -14 -21 -14 -18 0
-129 -79 -122 -87 8 -8 50 17 92 55 8 7 19 11 24 8 8 -6 50 9 116 39 31 15 50
10 25 -5 -8 -6 -11 -10 -6 -10 5 0 3 -6 -3 -13 -6 -8 -7 -17 -3 -21 4 -5 0 -6
-9 -4 -14 3 -79 -43 -79 -57 0 -3 20 6 45 21 29 16 63 27 96 29 29 2 55 8 59
15 4 6 13 10 21 9 8 -1 27 3 42 9 16 7 35 12 43 12 9 0 24 5 35 11 11 5 30 9
42 6 21 -3 20 -4 -6 -15 -15 -7 -47 -14 -70 -17 -22 -3 -43 -9 -47 -14 -3 -4
-27 -16 -53 -26 -27 -10 -51 -24 -54 -32 -3 -7 -16 -13 -29 -13 -14 0 -27 -6
-30 -14 -3 -7 -28 -24 -57 -37 -29 -13 -54 -26 -57 -29 -3 -4 -34 -21 -70 -38
-63 -32 -64 -32 -35 -6 49 43 5 21 -110 -57 -132 -88 -251 -203 -340 -328 -72
-100 -135 -218 -135 -251 0 -11 -4 -20 -8 -20 -10 0 -29 -72 -37 -140 -3 -30
-11 -62 -16 -70 -9 -12 -10 -10 -6 7 3 13 2 25 -3 28 -4 3 -10 -6 -12 -20 -6
-30 1 -75 12 -75 9 0 36 71 45 120 4 19 14 46 23 60 27 41 45 84 43 103 -1 9
2 17 7 17 13 0 35 59 34 90 -1 14 1 19 4 12 5 -10 9 -10 20 -1 8 6 14 15 14
20 0 4 9 33 21 64 17 45 24 54 34 45 11 -9 17 -5 28 17 16 30 119 143 130 143
4 0 21 16 38 35 17 19 37 35 44 35 12 0 25 20 31 48 4 21 14 27 14 9 0 -23 13
-21 35 3 10 11 24 20 31 20 7 0 18 9 24 20 6 11 15 18 20 15 5 -3 47 14 94 38
46 25 124 61 172 82 49 20 98 41 109 45 37 16 91 30 131 35 21 3 53 9 69 14
35 9 164 16 250 14 187 -7 461 -87 554 -164 19 -16 40 -29 46 -29 5 0 40 -30
77 -67 76 -75 91 -78 26 -5 -63 70 0 16 99 -86 45 -47 88 -97 95 -113 7 -16
16 -29 19 -29 12 0 59 -77 59 -97 0 -11 7 -27 16 -34 17 -14 17 -13 80 -177
83 -217 126 -422 89 -422 -13 0 -15 -10 -10 -57 4 -32 7 -93 8 -135 1 -43 5
-78 10 -78 4 0 7 9 7 19 0 11 5 23 11 26 7 5 9 -12 8 -50 -3 -58 -18 -88 -20
-38 -1 15 -7 -10 -14 -57 -7 -47 -11 -87 -9 -89 4 -4 5 -1 22 59 l10 35 1 -35
c0 -19 -4 -53 -10 -75 -6 -22 -10 -49 -10 -60 1 -18 -19 -93 -50 -195 -19 -60
-81 -193 -110 -237 -16 -23 -29 -45 -29 -49 0 -39 -339 -429 -357 -410 -3 3 8
17 25 31 19 15 29 32 25 40 -4 11 3 15 23 15 21 0 25 3 15 9 -15 10 -7 31 12
31 7 0 18 9 25 21 9 13 9 18 2 14 -7 -5 -7 0 1 14 8 12 16 16 20 10 6 -10 149
186 176 241 7 14 17 32 22 40 18 27 81 167 81 179 0 6 7 14 16 18 12 4 13 7 3
14 -11 6 -10 9 4 15 9 3 17 10 17 15 0 4 -6 6 -14 3 -10 -4 -9 11 7 65 13 44
24 66 29 58 6 -9 8 -9 8 0 0 6 -5 15 -10 18 -13 8 -3 68 17 108 9 19 10 27 2
27 -8 0 -9 11 -5 33 14 65 18 207 7 259 -17 80 -19 118 -9 118 5 0 8 15 6 33
-2 17 -8 31 -13 30 -6 -1 -21 46 -34 105 -22 105 -31 136 -57 197 -7 17 -27
67 -44 113 -18 45 -36 82 -41 82 -5 0 -11 11 -15 25 -3 13 -12 29 -20 36 -11
9 -11 4 2 -26 8 -21 22 -48 29 -59 7 -12 21 -41 30 -66 9 -25 26 -67 37 -95
85 -207 126 -553 94 -793 -32 -244 -67 -343 -194 -559 -46 -78 -112 -169 -162
-223 -21 -23 -31 -39 -22 -35 27 10 -33 -48 -93 -91 -30 -22 -53 -43 -51 -49
2 -5 -1 -18 -6 -27 -10 -20 2 -24 20 -6 6 6 15 9 18 5 7 -7 -20 -37 -34 -37
-5 0 -15 -7 -22 -15 -7 -8 -16 -12 -21 -9 -5 3 -9 0 -9 -5 0 -12 -78 -66 -85
-59 -3 2 13 15 35 27 23 13 40 29 39 39 0 11 -3 12 -6 5 -2 -7 -10 -13 -18
-13 -7 0 -18 -7 -26 -16 -7 -9 -27 -23 -45 -32 -55 -29 -193 -116 -189 -120 2
-2 17 4 34 13 18 9 36 13 42 9 10 -6 69 13 79 26 3 3 22 16 43 29 21 13 43 28
50 34 7 7 24 18 37 26 14 8 35 21 48 29 43 28 21 4 -46 -50 -89 -72 -170 -126
-264 -177 -43 -24 -78 -44 -78 -46 0 -8 73 15 95 29 13 9 27 16 31 16 15 0
-22 -33 -58 -51 -21 -11 -38 -21 -38 -24 0 -7 95 37 105 49 6 6 26 21 45 34
19 12 31 22 25 22 -5 0 4 9 20 20 17 11 35 20 40 20 6 0 3 -5 -5 -10 -29 -19
0 -10 32 10 18 11 40 20 48 20 9 0 31 13 50 30 35 29 57 39 45 20 -3 -5 -57
-43 -120 -85 -62 -41 -117 -79 -120 -85 -3 -5 -15 -10 -27 -10 -11 0 -22 -8
-25 -18 -2 -10 -20 -27 -40 -37 -19 -11 -30 -21 -25 -23 6 -2 24 4 41 12 16 9
36 13 45 10 8 -3 24 4 35 15 12 12 22 21 24 20 10 -2 36 15 32 21 -3 5 4 11
15 15 11 3 20 11 20 16 0 5 11 9 25 9 13 0 39 13 57 28 36 30 114 82 124 82 3
0 19 9 36 21 16 12 31 19 34 17 2 -3 -41 -34 -96 -69 -54 -35 -99 -69 -100
-75 0 -6 -10 -16 -22 -22 -25 -13 -40 -22 -105 -65 -24 -15 -59 -35 -78 -43
-45 -19 -44 -30 3 -29 78 2 288 97 381 173 29 24 56 40 60 37 3 -4 -3 -13 -14
-21 -11 -8 -38 -28 -60 -44 -82 -62 -260 -174 -294 -185 -10 -3 -31 -17 -45
-30 -15 -14 -41 -32 -58 -41 -20 -10 -27 -19 -19 -23 15 -10 -78 -53 -113 -53
-23 0 -49 -17 -29 -19 4 0 16 -2 26 -4 10 -2 51 10 90 26 40 16 77 29 84 29 6
0 28 9 47 21 20 12 36 17 36 12 0 -6 -23 -22 -51 -37 -80 -44 -50 -42 46 3 47
23 92 41 99 41 6 0 32 13 57 28 24 15 73 43 109 61 36 19 69 39 73 45 6 7 7 6
4 -4 -7 -28 -202 -145 -375 -225 -81 -38 -111 -62 -36 -29 22 9 48 20 59 24
65 25 237 110 275 136 25 17 52 34 60 38 37 17 100 62 174 123 22 18 44 33 50
33 5 0 1 -7 -10 -16 -13 -11 -15 -17 -6 -20 6 -3 10 -10 6 -15 -3 -5 0 -9 5
-9 6 0 11 7 11 15 0 8 4 15 10 15 5 0 29 20 53 45 25 25 49 45 53 45 5 0 27
18 48 40 36 36 56 49 56 35 0 -7 -39 -45 -45 -45 -3 0 -19 -15 -36 -34 -16
-19 -68 -67 -114 -106 -47 -40 -85 -77 -85 -83 0 -6 10 -2 23 9 12 11 39 33
60 48 29 21 35 23 27 9 -7 -11 -39 -38 -71 -62 -31 -23 -63 -49 -70 -57 -6 -8
-20 -14 -31 -14 -10 0 -16 -4 -13 -10 3 -5 0 -10 -9 -10 -8 0 -16 -3 -18 -8
-5 -13 -101 -72 -117 -72 -8 0 -26 -11 -40 -24 -34 -33 -225 -126 -329 -162
-46 -16 -79 -30 -74 -32 6 -2 36 7 68 18 33 12 86 28 119 36 33 8 110 39 170
69 61 30 121 55 133 55 12 0 26 8 31 19 6 10 23 26 38 36 24 16 26 16 14 2
-16 -21 -5 -21 29 -2 14 8 30 14 35 14 6 0 -6 -9 -25 -20 -19 -11 -57 -33 -85
-50 -27 -16 -61 -34 -75 -40 -14 -6 -52 -23 -85 -39 -33 -16 -76 -32 -95 -36
-19 -3 -68 -19 -108 -35 -41 -15 -98 -33 -128 -39 -30 -6 -54 -16 -54 -21 0
-13 19 -11 117 12 48 11 99 22 113 24 30 4 52 11 107 36 24 10 49 19 57 19 8
0 18 4 21 10 3 5 16 10 27 10 11 0 26 6 32 14 14 17 89 46 121 46 15 0 31 10
41 25 9 14 34 30 55 37 28 8 39 17 39 31 0 10 9 21 20 24 11 3 20 10 20 15 0
5 6 8 13 6 20 -5 126 72 121 87 -6 14 30 30 45 21 5 -4 18 5 29 19 11 13 22
21 26 18 3 -3 6 1 6 11 0 9 6 19 14 22 17 7 96 80 96 90 0 3 -8 3 -17 0 -10
-4 2 14 27 39 106 110 140 150 140 163 0 4 18 29 40 56 22 26 40 53 40 58 0 5
16 33 35 62 19 29 35 60 35 70 0 9 5 16 11 16 7 0 9 10 7 25 -4 17 3 34 22 55
15 16 32 49 39 72 7 22 23 64 36 92 31 67 50 139 37 144 -12 4 7 109 42 223
13 46 28 109 31 139 4 30 10 80 13 110 7 51 2 157 -13 305 -27 269 -57 420
-122 615 -40 118 -163 373 -214 444 -19 26 -48 67 -66 91 -22 30 -27 42 -15
38 15 -6 15 -5 3 10 -7 9 -17 15 -21 12 -5 -3 -10 -1 -12 4 -1 5 -37 46 -78
91 -41 45 -78 91 -83 102 -4 12 -13 18 -22 15 -8 -4 -32 9 -56 28 -45 38 -59
45 -38 18 13 -16 12 -17 -3 -4 -10 7 -18 19 -18 27 0 19 -57 57 -62 42 -3 -8
-13 -5 -33 10 -15 12 -34 22 -42 22 -7 0 -16 7 -19 15 -4 8 -12 15 -20 15 -8
0 -41 14 -74 32 -48 25 -63 29 -73 19 -9 -10 -8 -11 8 -5 11 4 17 3 12 -1 -7
-9 20 -45 35 -45 5 0 27 -12 49 -26 23 -14 43 -23 46 -21 3 3 -7 13 -21 23
-15 9 -25 19 -22 21 2 3 32 -14 65 -36 33 -23 64 -41 68 -41 14 -1 53 -38 53
-50 0 -6 4 -9 9 -5 5 3 12 1 15 -4 4 -5 -8 -12 -24 -16 -25 -6 -36 -2 -57 19
-14 14 -31 27 -37 28 -6 0 -18 2 -26 2 -8 1 -14 8 -12 15 1 7 -2 10 -8 6 -12
-8 -52 13 -46 24 3 5 -4 17 -15 27 -16 14 -22 15 -28 5 -6 -10 -16 -8 -47 8
-21 12 -47 21 -56 21 -10 0 -18 7 -18 15 0 8 -6 15 -14 15 -7 0 -19 7 -26 15
-9 11 -16 12 -25 5 -9 -8 -14 -7 -17 2 -3 9 -6 9 -12 0 -4 -7 -2 -12 4 -12 6
0 9 -4 5 -9 -3 -5 0 -13 6 -17 8 -4 9 -3 5 4 -10 17 7 15 30 -3 16 -13 16 -14
2 -9 -34 12 -18 -5 25 -25 110 -53 236 -131 242 -151 3 -8 27 -31 54 -50 27
-19 47 -37 45 -39 -2 -2 -12 3 -21 11 -36 30 -47 29 -13 -2 106 -97 160 -153
160 -167 0 -3 6 -14 13 -22 26 -30 61 -95 47 -86 -10 6 -12 4 -6 -11 4 -10 5
-16 3 -14 -2 3 -23 28 -48 55 -24 28 -34 41 -21 31 24 -21 28 -16 11 15 -6 12
-17 18 -27 15 -12 -4 -37 15 -80 58 -34 35 -81 76 -105 92 -23 16 -44 32 -47
35 -10 14 -145 99 -156 99 -6 0 -18 7 -25 17 -8 9 -27 22 -44 30 -16 7 -37 18
-45 23 -8 6 -46 24 -85 41 -55 25 -66 33 -51 39 17 6 18 7 3 13 -9 3 -17 2
-17 -3 0 -14 -31 -12 -61 4 -35 18 -111 40 -264 76 -71 17 -139 33 -150 36
-38 9 -320 12 -375 4z m1205 -110 c17 -11 26 -20 20 -20 -5 0 -23 9 -40 20
-16 11 -25 20 -20 20 6 0 24 -9 40 -20z m-988 4 c-3 -3 -12 -4 -19 -1 -8 3 -5
6 6 6 11 1 17 -2 13 -5z m300 -22 c83 -19 317 -111 284 -112 -8 0 -57 14 -110
31 -53 17 -127 33 -166 36 -43 3 -82 12 -101 24 -17 10 -67 24 -110 30 -43 6
-81 13 -84 16 -13 13 205 -6 287 -25z m718 -52 c3 -5 2 -10 -4 -10 -5 0 -13 5
-16 10 -3 6 -2 10 4 10 5 0 13 -4 16 -10z m205 -46 c0 -2 -9 0 -20 6 -11 6
-20 13 -20 16 0 2 9 0 20 -6 11 -6 20 -13 20 -16z m-1880 -4 c0 -6 -8 -13 -17
-16 -10 -3 -36 -15 -58 -26 -49 -26 -42 -17 16 22 49 31 59 35 59 20z m185
-10 c-3 -5 -12 -10 -18 -10 -7 0 -6 4 3 10 19 12 23 12 15 0z m1185 -23 c63
-28 262 -180 296 -225 l28 -37 -30 25 c-60 50 -164 117 -221 145 -17 8 -52 28
-76 45 -25 16 -49 30 -55 30 -10 0 -22 23 -22 41 0 10 17 5 80 -24z m-843 -63
c-3 -3 -12 -4 -19 -1 -8 3 -5 6 6 6 11 1 17 -2 13 -5z m-1038 -147 c-2 -2 -26
-23 -54 -48 -37 -33 -43 -36 -26 -14 19 26 68 65 80 65 2 0 2 -1 0 -3z m2311
-127 c6 -11 9 -20 7 -20 -2 0 -12 9 -22 20 -10 11 -13 20 -7 20 6 0 16 -9 22
-20z m-221 -55 c68 -71 59 -71 -16 0 -32 30 -53 55 -47 55 5 0 34 -25 63 -55z
m-2234 8 c-20 -40 -41 -58 -50 -43 -6 9 55 82 63 75 1 -1 -5 -16 -13 -32z
m517 -5 c-7 -7 -12 -8 -12 -2 0 14 12 26 19 19 2 -3 -1 -11 -7 -17z m2219 -73
l10 -20 -16 20 c-9 11 -21 29 -26 40 l-10 20 16 -20 c9 -11 21 -29 26 -40z
m-2791 21 c0 -8 -8 -21 -17 -28 -26 -19 -99 -129 -106 -160 -4 -15 -13 -33
-21 -40 -7 -8 -17 -25 -21 -38 -8 -28 -74 -150 -80 -150 -2 0 -1 7 2 17 5 11
3 14 -6 8 -10 -6 -11 -2 -6 15 13 42 46 110 53 110 4 0 14 15 21 33 8 17 40
67 70 110 31 42 65 91 76 107 22 32 35 38 35 16z m2421 -83 c13 -16 12 -17 -3
-4 -17 13 -22 21 -14 21 2 0 10 -8 17 -17z m-2347 -38 c-9 -14 -18 -25 -21
-25 -5 0 5 18 20 38 17 22 18 13 1 -13z m26 -5 c-16 -29 -100 -140 -107 -140
-2 0 14 26 37 58 23 31 49 69 58 84 20 31 29 30 12 -2z m-650 -105 c0 -8 -4
-15 -10 -15 -5 0 -7 7 -4 15 4 8 8 15 10 15 2 0 4 -7 4 -15z m509 -42 c-32
-53 -59 -88 -59 -75 0 6 6 17 13 24 7 7 23 30 36 51 12 20 25 37 28 37 2 0 -6
-17 -18 -37z m171 13 c0 -3 -4 -8 -10 -11 -5 -3 -10 -1 -10 4 0 6 5 11 10 11
6 0 10 -2 10 -4z m-700 -27 c0 -6 -4 -7 -10 -4 -5 3 -10 11 -10 16 0 6 5 7 10
4 6 -3 10 -11 10 -16z m100 -59 c-18 -11 -22 -7 -14 14 5 13 10 14 18 6 8 -8
7 -13 -4 -20z m657 -12 c-3 -8 -6 -5 -6 6 -1 11 2 17 5 13 3 -3 4 -12 1 -19z
m-296 -31 c-10 -9 -11 -8 -5 6 3 10 9 15 12 12 3 -3 0 -11 -7 -18z m-147 -84
c-7 -39 -33 -98 -34 -77 0 15 32 114 37 114 2 0 1 -17 -3 -37z m-147 -135 c-3
-8 -6 -5 -6 6 -1 11 2 17 5 13 3 -3 4 -12 1 -19z m330 -35 c-3 -10 -5 -4 -5
12 0 17 2 24 5 18 2 -7 2 -21 0 -30z m-60 -215 c-3 -8 -6 -5 -6 6 -1 11 2 17
5 13 3 -3 4 -12 1 -19z m2797 -163 c4 -55 4 -97 1 -93 -7 6 -10 32 -15 128 -3
45 -1 74 4 69 2 -2 7 -49 10 -104z m-3074 -400 c0 -29 -3 -36 -10 -25 -5 8
-10 33 -10 55 0 29 3 36 10 25 5 -8 10 -33 10 -55z m-350 -95 c10 -36 28 -100
39 -144 12 -43 20 -81 17 -84 -4 -3 -6 2 -6 11 0 8 -6 22 -13 29 -22 22 -37
71 -73 236 -3 16 -1 23 7 20 6 -2 20 -33 29 -68z m721 -32 c11 -21 11 -22 -4
-9 -10 7 -17 17 -17 22 0 15 9 10 21 -13z m14 -38 c3 -5 1 -10 -4 -10 -6 0
-11 5 -11 10 0 6 2 10 4 10 3 0 8 -4 11 -10z m-765 -35 c0 -5 -5 -3 -10 5 -5
8 -10 20 -10 25 0 6 5 3 10 -5 5 -8 10 -19 10 -25z m635 -85 c9 -28 20 -48 25
-45 13 8 24 -15 27 -52 2 -35 -20 -47 -31 -17 -5 14 -4 15 8 5 12 -11 14 -8
12 15 -2 16 -8 30 -15 32 -6 2 -9 -4 -6 -15 3 -10 -3 0 -14 22 -18 38 -35 105
-27 105 3 0 12 -23 21 -50z m-517 -115 c-3 -3 -9 2 -12 12 -6 14 -5 15 5 6 7
-7 10 -15 7 -18z m2 -90 c0 -5 -5 -3 -10 5 -5 8 -10 20 -10 25 0 6 5 3 10 -5
5 -8 10 -19 10 -25z m2795 -365 c-3 -5 -11 -10 -17 -10 -6 0 -19 -6 -28 -12
-9 -7 -5 -3 8 10 23 22 48 31 37 12z m109 -54 c-6 -16 -54 -51 -54 -39 0 6 49
51 57 53 1 0 0 -6 -3 -14z m567 -61 c-56 -74 -63 -70 -10 5 23 33 44 58 47 55
3 -2 -14 -29 -37 -60z m-432 36 c-7 -10 -21 -24 -33 -31 -15 -9 -12 -3 8 19
34 35 41 39 25 12z m-199 -44 c0 -2 -15 -16 -32 -33 l-33 -29 29 33 c28 30 36
37 36 29z m120 -20 c0 -2 -10 -12 -22 -23 l-23 -19 19 23 c18 21 26 27 26 19z
m-400 -52 c0 -7 -91 -67 -96 -62 -3 2 17 18 43 36 51 32 53 34 53 26z m823
-28 c-15 -19 -30 -32 -32 -30 -5 3 49 63 57 63 2 0 -9 -15 -25 -33z m-418 -57
c-3 -5 -12 -10 -18 -10 -7 0 -6 4 3 10 19 12 23 12 15 0z m210 -80 c-3 -5 -12
-10 -18 -10 -7 0 -6 4 3 10 19 12 23 12 15 0z m-675 -80 c-8 -5 -19 -10 -25
-10 -5 0 -3 5 5 10 8 5 20 10 25 10 6 0 3 -5 -5 -10z m146 -169 c-6 -9 -66
-33 -66 -26 0 6 52 34 63 35 5 0 6 -4 3 -9z"/>
<path d="M1360 3957 c0 -4 -12 -13 -27 -19 -16 -7 -47 -25 -70 -40 -23 -15
-46 -28 -52 -28 -6 0 -11 -4 -11 -9 0 -5 -21 -19 -46 -30 -47 -22 -89 -58
-225 -191 -43 -41 -90 -86 -105 -100 -26 -24 -98 -127 -99 -142 0 -3 -10 -18
-22 -32 -32 -37 -94 -156 -88 -167 10 -15 25 0 25 25 0 12 9 32 20 44 11 12
20 24 20 28 0 4 11 22 25 40 14 18 25 37 25 42 0 14 82 123 88 117 3 -3 -4
-15 -16 -28 -12 -13 -22 -27 -22 -32 0 -5 24 17 53 49 28 32 81 86 116 120 35
33 91 89 125 123 34 34 79 74 101 89 58 40 218 134 227 134 4 0 8 4 8 9 0 5
-11 8 -25 7 -14 0 -25 -4 -25 -9z"/>
<path d="M3108 3957 c12 -7 19 -17 15 -23 -4 -5 -1 -3 7 3 16 15 14 18 -20 27
l-25 7 23 -14z"/>
<path d="M1818 3942 c-10 -2 -18 -8 -18 -13 0 -11 11 -11 30 1 18 11 11 18
-12 12z"/>
<path d="M3164 3935 c22 -17 40 -20 32 -6 -3 5 -16 11 -28 14 -22 6 -22 5 -4
-8z"/>
<path d="M3426 3852 c-2 -4 7 -13 21 -19 25 -12 25 -12 8 7 -20 22 -22 23 -29
12z"/>
<path d="M3015 3840 c3 -5 11 -10 16 -10 6 0 7 5 4 10 -3 6 -11 10 -16 10 -6
0 -7 -4 -4 -10z"/>
<path d="M3380 3811 c0 -7 8 -15 18 -18 9 -4 35 -21 56 -40 48 -40 73 -44 31
-5 -41 38 -105 76 -105 63z"/>
<path d="M850 3740 c-6 -11 -8 -20 -4 -20 4 0 -1 -9 -11 -20 -20 -22 -41 -27
-29 -7 5 7 1 6 -12 -3 -34 -26 -54 -49 -54 -63 0 -7 -11 -24 -25 -37 -14 -13
-23 -25 -20 -28 2 -2 11 3 20 12 21 20 35 21 35 1 0 -8 4 -15 8 -15 17 0 70
67 81 102 7 21 24 46 39 57 15 11 23 23 18 28 -5 4 -11 2 -13 -4 -3 -7 -9 -13
-14 -13 -4 0 -6 7 -3 15 9 22 -4 18 -16 -5z"/>
<path d="M1245 3740 c3 -5 8 -10 11 -10 2 0 4 5 4 10 0 6 -5 10 -11 10 -5 0
-7 -4 -4 -10z"/>
<path d="M3610 3731 c0 -5 5 -13 10 -16 6 -3 10 -2 10 4 0 5 -4 13 -10 16 -5
3 -10 2 -10 -4z"/>
<path d="M1195 3718 c-32 -18 -109 -91 -117 -110 -10 -25 4 -23 20 3 7 12 16
18 19 15 4 -3 11 4 17 16 6 13 19 24 28 26 22 4 84 62 67 62 -8 0 -23 -6 -34
-12z"/>
<path d="M3285 3720 c3 -5 8 -10 11 -10 2 0 4 5 4 10 0 6 -5 10 -11 10 -5 0
-7 -4 -4 -10z"/>
<path d="M2580 3569 c0 -5 5 -7 10 -4 6 3 10 8 10 11 0 2 -4 4 -10 4 -5 0 -10
-5 -10 -11z"/>
<path d="M1400 3549 c-7 -11 -9 -23 -6 -26 8 -9 47 28 40 38 -9 15 -23 10 -34
-12z"/>
<path d="M1675 3560 c-3 -5 -15 -10 -26 -10 -11 0 -23 -8 -26 -17 -4 -10 -11
-22 -17 -26 -6 -5 0 -5 14 -1 14 3 33 13 42 21 9 8 21 12 26 9 5 -3 12 3 15
14 5 21 -16 29 -28 10z"/>
<path d="M992 3534 c-7 -14 -8 -23 -2 -19 15 9 32 45 22 45 -5 0 -14 -12 -20
-26z"/>
<path d="M1515 3550 c4 -6 11 -8 16 -5 14 9 11 15 -7 15 -8 0 -12 -5 -9 -10z"/>
<path d="M2725 3530 c11 -5 29 -9 40 -9 l20 0 -20 9 c-11 5 -29 9 -40 9 l-20
0 20 -9z"/>
<path d="M640 3499 c0 -5 5 -7 10 -4 6 3 10 8 10 11 0 2 -4 4 -10 4 -5 0 -10
-5 -10 -11z"/>
<path d="M896 3443 c-31 -37 -53 -69 -50 -72 3 -3 10 2 15 12 6 9 15 17 20 17
6 0 7 -6 3 -12 -4 -8 -3 -10 2 -5 5 5 9 12 10 15 2 20 17 41 25 36 5 -3 9 2 9
11 0 8 9 23 20 32 11 10 20 21 20 25 0 21 -23 2 -74 -59z"/>
<path d="M1554 3495 c-4 -8 -12 -15 -19 -15 -15 0 -40 -28 -33 -36 3 -3 12 2
20 9 8 8 23 17 34 19 10 2 20 11 22 21 4 21 -16 23 -24 2z"/>
<path d="M1880 3469 c0 -5 5 -7 10 -4 6 3 10 8 10 11 0 2 -4 4 -10 4 -5 0 -10
-5 -10 -11z"/>
<path d="M1945 3445 c-27 -13 -46 -24 -40 -24 16 -1 95 33 95 42 0 9 4 10 -55
-18z"/>
<path d="M1448 3429 c-10 -5 -18 -17 -18 -25 0 -19 16 -10 30 17 12 22 11 22
-12 8z"/>
<path d="M906 3361 c-4 -7 -5 -15 -2 -18 9 -9 19 4 14 18 -4 11 -6 11 -12 0z"/>
<path d="M775 3290 c-3 -5 -2 -10 4 -10 5 0 13 5 16 10 3 6 2 10 -4 10 -5 0
-13 -4 -16 -10z"/>
<path d="M585 3159 c-4 -6 -5 -12 -2 -15 2 -3 7 2 10 11 7 17 1 20 -8 4z"/>
<path d="M3230 3088 c0 -9 5 -20 10 -23 13 -8 13 5 0 25 -8 13 -10 13 -10 -2z"/>
<path d="M3340 3070 c0 -5 5 -10 11 -10 5 0 7 5 4 10 -3 6 -8 10 -11 10 -2 0
-4 -4 -4 -10z"/>
<path d="M4206 2855 c4 -8 8 -15 10 -15 2 0 4 7 4 15 0 8 -4 15 -10 15 -5 0
-7 -7 -4 -15z"/>
<path d="M955 2820 c-15 -30 -21 -59 -8 -46 8 8 32 76 27 76 -2 0 -10 -13 -19
-30z"/>
<path d="M4231 2773 c0 -10 4 -27 8 -37 7 -18 8 -18 14 -2 4 10 2 26 -3 37
-13 24 -20 24 -19 2z"/>
<path d="M4250 2688 c0 -13 5 -30 10 -38 7 -11 10 -7 10 17 0 17 -4 35 -10 38
-6 3 -10 -4 -10 -17z"/>
<path d="M4294 2600 c8 -80 15 -123 23 -130 3 -3 3 13 0 35 -4 22 -9 65 -13
95 -9 78 -18 78 -10 0z"/>
<path d="M4260 2618 c0 -7 5 -20 10 -28 8 -12 10 -9 10 13 0 15 -4 27 -10 27
-5 0 -10 -6 -10 -12z"/>
<path d="M126 2585 c-9 -26 -7 -32 5 -12 6 10 9 21 6 23 -2 3 -7 -2 -11 -11z"/>
<path d="M117 2535 c-9 -30 -27 -137 -26 -154 1 -9 7 9 14 39 7 30 13 45 14
32 0 -13 6 -20 11 -17 11 7 12 57 1 95 -7 23 -8 23 -14 5z"/>
<path d="M3546 2462 c-3 -5 -2 -22 3 -38 l8 -29 5 33 c4 31 -5 52 -16 34z"/>
<path d="M4312 2440 c0 -14 2 -19 5 -12 2 6 2 18 0 25 -3 6 -5 1 -5 -13z"/>
<path d="M117 2391 c-4 -17 -3 -21 5 -13 5 5 8 16 6 23 -3 8 -7 3 -11 -10z"/>
<path d="M4317 2389 c4 -13 8 -18 11 -10 2 7 -1 18 -6 23 -8 8 -9 4 -5 -13z"/>
<path d="M111 2334 c0 -11 3 -14 6 -6 3 7 2 16 -1 19 -3 4 -6 -2 -5 -13z"/>
<path d="M3530 2280 c0 -5 5 -10 10 -10 6 0 10 5 10 10 0 6 -4 10 -10 10 -5 0
-10 -4 -10 -10z"/>
<path d="M4321 2264 c0 -11 3 -14 6 -6 3 7 2 16 -1 19 -3 4 -6 -2 -5 -13z"/>
<path d="M4322 2215 c0 -16 2 -22 5 -12 2 9 2 23 0 30 -3 6 -5 -1 -5 -18z"/>
<path d="M880 2185 c0 -8 4 -15 10 -15 5 0 7 7 4 15 -4 8 -8 15 -10 15 -2 0
-4 -7 -4 -15z"/>
<path d="M4323 2110 c0 -30 2 -43 4 -27 2 15 2 39 0 55 -2 15 -4 2 -4 -28z"/>
<path d="M4316 1988 c-16 -113 -21 -168 -15 -168 4 0 10 26 14 58 3 31 8 76
11 100 5 49 -3 58 -10 10z"/>
<path d="M936 1831 c4 -16 3 -21 -5 -17 -7 5 -8 1 -4 -10 5 -15 7 -15 15 0 6
10 5 23 -2 34 -9 14 -10 13 -4 -7z"/>
<path d="M1013 1636 c10 -26 89 -137 95 -132 6 6 -67 122 -86 138 -13 11 -15
10 -9 -6z"/>
<path d="M4235 1599 c-9 -28 -2 -33 13 -9 6 11 8 21 3 25 -5 3 -13 -4 -16 -16z"/>
<path d="M4220 1549 c0 -5 5 -7 10 -4 6 3 10 8 10 11 0 2 -4 4 -10 4 -5 0 -10
-5 -10 -11z"/>
<path d="M1060 1441 c0 -10 29 -36 34 -30 1 2 -6 12 -16 22 -10 9 -18 13 -18
8z"/>
<path d="M1094 1206 c28 -25 52 -43 55 -41 7 8 -35 48 -71 68 -28 16 -26 12
16 -27z"/>
<path d="M1230 1191 c0 -10 25 -21 48 -21 12 1 10 5 -8 15 -29 17 -40 18 -40
6z"/>
<path d="M1090 1155 c7 -9 15 -13 17 -11 7 7 -7 26 -19 26 -6 0 -6 -6 2 -15z"/>
<path d="M1290 1139 c0 -5 5 -7 10 -4 6 3 10 8 10 11 0 2 -4 4 -10 4 -5 0 -10
-5 -10 -11z"/>
<path d="M1248 1078 c5 -5 16 -8 23 -6 8 3 3 7 -10 11 -17 4 -21 3 -13 -5z"/>
<path d="M1530 1012 c6 -13 14 -21 18 -18 3 4 -2 14 -12 24 -18 16 -18 16 -6
-6z"/>
<path d="M2605 690 c-4 -6 -11 -7 -17 -4 -6 4 -8 2 -5 -3 4 -6 -17 -21 -51
-34 -32 -13 -50 -25 -40 -27 21 -4 125 46 132 64 6 16 -10 19 -19 4z"/>
<path d="M2440 595 c-14 -8 -19 -14 -10 -14 8 0 24 6 34 14 25 19 9 19 -24 0z"/>
<path d="M3306 551 c-15 -16 -15 -19 -1 -24 13 -6 45 0 45 8 0 11 -13 35 -20
35 -4 0 -15 -8 -24 -19z"/>
<path d="M2584 514 c-18 -14 -18 -14 6 -3 31 14 36 19 24 19 -6 0 -19 -7 -30
-16z"/>
<path d="M3224 489 c-19 -22 -19 -22 4 -10 12 6 22 16 22 21 0 15 -5 12 -26
-11z"/>
<path d="M3265 500 c-3 -5 -1 -10 4 -10 6 0 11 5 11 10 0 6 -2 10 -4 10 -3 0
-8 -4 -11 -10z"/>
<path d="M2560 460 c-8 -5 -12 -11 -9 -14 2 -3 11 -1 19 4 8 5 12 11 9 14 -2
3 -11 1 -19 -4z"/>
<path d="M2498 424 c-12 -7 -51 -26 -85 -43 -35 -16 -63 -32 -63 -35 0 -3 35
7 78 23 149 56 147 55 113 64 -11 2 -30 -1 -43 -9z"/>
<path d="M2315 343 c-11 -3 -24 -10 -30 -15 -12 -13 35 0 50 13 5 5 7 8 5 8
-3 -1 -14 -3 -25 -6z"/>
<path d="M2497 293 c-12 -12 -7 -22 8 -17 8 4 15 10 15 15 0 11 -14 12 -23 2z"/>
<path d="M2420 260 c0 -5 7 -10 16 -10 8 0 12 5 9 10 -3 6 -10 10 -16 10 -5 0
-9 -4 -9 -10z"/>
<path d="M2650 230 c-13 -8 -12 -10 3 -10 9 0 17 5 17 10 0 12 -1 12 -20 0z"/>
<path d="M2601 209 c-13 -5 -22 -11 -20 -14 8 -7 49 7 49 16 0 5 -1 9 -2 8 -2
0 -14 -5 -27 -10z"/>
<path d="M2550 190 c-13 -8 -12 -10 3 -10 9 0 17 5 17 10 0 12 -1 12 -20 0z"/>
<path d="M2610 59 c0 -5 5 -7 10 -4 6 3 10 8 10 11 0 2 -4 4 -10 4 -5 0 -10
-5 -10 -11z"/>
</g>
</svg>
